# xmcd
#
# Track frame offsets:
#	150
#	16193
#	40968
#	56284
#	72801
#	93194
#	108887
#	125948
#	144035
#	161281
#	184012
#	203311
#	221812
#	242246
#	268948
#	288688
#
# Disc length: 4282 seconds
#
# Revision: 0
# Processed by: cddbd v1.5.2PL0 Copyright (c) Steve Scherf et al.
# Submitted via: audiograbber 1.83.01
#
DISCID=e010b810
DTITLE=Juan Gabriel and Ana Gabriel - Simplemente Amigos
DYEAR=2007
DGENRE=ROMANTICA
TTITLE0=QUIEN COMO TU
TTITLE1=QUERIDA
TTITLE2=AY AMOR
TTITLE3=TE LO PIDO POR FAVOR
TTITLE4=NI UN ROCE
TTITLE5=SIEMPRE EN MI MENTE
TTITLE6=SIMPLEMENTE AMIGOS
TTITLE7=QUE LASTIMA
TTITLE8=ES EL AMOR QUIEN LLEGA
TTITLE9=HE VENIDO A PEDIRTE PERDON
TTITLE10=EVIDENCIAS
TTITLE11=INOCENTE DE TI
TTITLE12=LUNA
TTITLE13=PERO QUE NECESIDAD
TTITLE14=HUELO A SOLEDAD
TTITLE15=HASTA QUE TE CONOCI
EXTD=
EXTT0=
EXTT1=
EXTT2=
EXTT3=
EXTT4=
EXTT5=
EXTT6=
EXTT7=
EXTT8=
EXTT9=
EXTT10=
EXTT11=
EXTT12=
EXTT13=
EXTT14=
EXTT15=
PLAYORDER=
